# xmcd CD database file
#
# Track frame offsets:
#	150
#	27651
#	58843
#	79487
#	101087
#	125038
#	144896
#
# Disc length: 2252 seconds
#
# Revision: 0
# Processed by: cddbd v1.5.2PL0 Copyright (c) Steve Scherf et al.
# Submitted via: CDex 1.51
#
DISCID=6608ca07
DTITLE=Savvas Savva - Nature Sounds For Babies
DYEAR=2007
DGENRE=New Age
TTITLE0=Symphony Of Whales. Dreaming Whales
TTITLE1=Symphony Of Whales. Relaxing Whales
TTITLE2=Symphony Of Whales. Playful Whales
TTITLE3=Dolphins Delight
TTITLE4=Joyfull Dolphins
TTITLE5=Dolphins Lullaby
TTITLE6=Happy Dolphins
EXTD=YEAR: 2007
EXTT0=
EXTT1=
EXTT2=
EXTT3=
EXTT4=
EXTT5=
EXTT6=
PLAYORDER=
